<svg width="20" height="20" viewBox="0 0 20 20" fill="none" xmlns="http://www.w3.org/2000/svg">
  <path d="M11.6663 1.89122V5.33334C11.6663 5.80005 11.6663 6.0334 11.7572 6.21166C11.8371 6.36846 11.9645 6.49595 12.1213 6.57584C12.2996 6.66667 12.533 6.66667 12.9997 6.66667H16.4418M16.6663 8.32352V14.3333C16.6663 15.7335 16.6663 16.4335 16.3939 16.9683C16.1542 17.4387 15.7717 17.8212 15.3013 18.0609C14.7665 18.3333 14.0665 18.3333 12.6663 18.3333H7.33301C5.93288 18.3333 5.23281 18.3333 4.69803 18.0609C4.22763 17.8212 3.84517 17.4387 3.60549 16.9683C3.33301 16.4335 3.33301 15.7335 3.33301 14.3333V5.66667C3.33301 4.26654 3.33301 3.56647 3.60549 3.03169C3.84517 2.56129 4.22763 2.17884 4.69803 1.93915C5.23281 1.66667 5.93288 1.66667 7.33301 1.66667H10.0095C10.621 1.66667 10.9267 1.66667 11.2144 1.73574C11.4695 1.79698 11.7134 1.898 11.9371 2.03507C12.1893 2.18967 12.4055 2.40586 12.8379 2.83824L15.4948 5.49509C15.9271 5.92747 16.1433 6.14366 16.2979 6.39596C16.435 6.61964 16.536 6.8635 16.5973 7.11859C16.6663 7.40631 16.6663 7.71205 16.6663 8.32352Z" stroke="currentColor" stroke-width="1.66667" stroke-linecap="round" stroke-linejoin="round"/>
</svg>
