<svg width="152" height="52" viewBox="0 0 152 52" fill="none" xmlns="http://www.w3.org/2000/svg">
<path d="M26.2348 32.6566L22.051 25.4102L21.8293 25.0262L21.2443 24.0125L20.659 25.0262L20.4372 25.4102L12.9619 38.3577L12.8877 38.4859L12.6929 38.8235L12.8882 39.1616L12.9619 39.2892L17.1457 46.5357L17.367 46.9201L17.9524 47.9334L18.5378 46.9201L18.7595 46.5357L26.2348 33.5881L26.3086 33.46L26.5038 33.1224L26.3086 32.7843L26.2348 32.6566Z" fill="#84D5F7"/>
<path d="M19.6972 24.5647L20.2826 23.5514H19.1123H18.6688H3.67047H3.22694H2.05664L2.64203 24.5647L2.86379 24.9491L10.3627 37.9378L10.5845 38.3218L11.1694 39.3356L11.7548 38.3218L11.9765 37.9378L19.4754 24.9491L19.6972 24.5647Z" fill="#438CCB"/>
<path d="M3.77593 22.4879H11.2748H11.7184H12.8887L12.3033 21.4741L12.0815 21.0902L8.3323 14.5956L8.11053 14.2117L7.52514 13.1979L6.94023 14.2117L6.71846 14.5956L2.96877 21.0902L2.74701 21.4741L2.16162 22.4879H3.33239H3.77593Z" fill="#84D5F7"/>
<path d="M10.5303 16.2757L13.8478 22.0218L13.922 22.1499L14.1168 22.488H14.5069H14.6549H18.1162H18.2637H18.6538L18.8491 22.1499L18.9229 22.0223L23.0636 14.8501L23.1378 14.7219L23.3327 14.3843L23.1378 14.0462L23.0636 13.9181L18.0155 5.17466L17.7937 4.79023L17.2083 3.77692L16.6234 4.79023L16.4016 5.17466L10.5303 15.3437L10.456 15.4719L10.2612 15.81L10.456 16.1476L10.5303 16.2757Z" fill="#55A6D7"/>
<path d="M33.1355 23.5514H32.6919H23.8199H23.3763H22.2056L22.791 24.5647L23.0127 24.9491L27.449 32.6325L27.6708 33.0164L28.2557 34.0302L28.8411 33.0164L29.0628 32.6325L33.4986 24.9491L33.7204 24.5647L34.3058 23.5514H33.1355Z" fill="#55A6D7"/>
<path d="M20.4672 21.4742L19.8823 22.488H21.0526H21.4962H32.5859H33.0294H34.2002L33.6148 21.4742L33.393 21.0902L27.8479 11.4857L27.6262 11.1018L27.0413 10.0884L26.4559 11.1018L26.2341 11.4857L20.689 21.0902L20.4672 21.4742Z" fill="#62BFEC"/>
<path d="M27.0408 6.96704L23.947 12.3263L17.2084 0.655457L10.0234 13.1004L9.64517 13.7519L7.52302 10.077L0 23.1129L11.1692 42.4572L12.0784 40.8821L17.9522 51.0555L27.1179 35.181L28.256 37.1523L36.3621 23.1129L27.0408 6.96704ZM33.0677 24.6989L28.2556 33.0357L23.067 24.0515H33.4441L33.0658 24.7031L33.0677 24.6989ZM3.0234 21.9909L3.40167 21.3393L7.52728 14.1931L12.0293 21.9909H3.0234ZM18.3669 21.9909H14.4039L10.8358 15.8103L17.2084 4.77208L22.7587 14.3846L18.3669 21.9909ZM19.4208 24.0492L11.1692 38.341L2.91795 24.0492H19.4208ZM21.2442 25.0076L25.9291 33.1227L17.9522 46.9388L13.2672 38.8243L21.2442 25.0076ZM26.6649 11.7348L27.0432 11.0832L33.3387 21.9909H20.7434L26.6649 11.7348Z" fill="#002C3B"/>
<path d="M45.948 37.232C45.5059 37.232 45.1523 37.1326 44.8871 36.9337C44.6218 36.7348 44.4671 36.4695 44.4229 36.138C44.3787 35.8065 44.445 35.4307 44.6218 35.0108L53.6063 14.8537C53.8274 14.3232 54.1036 13.9475 54.4352 13.7265C54.7888 13.5055 55.1756 13.395 55.5955 13.395C55.9934 13.395 56.3581 13.5055 56.6896 13.7265C57.0432 13.9475 57.3305 14.3232 57.5516 14.8537L66.5361 35.0108C66.735 35.4307 66.8123 35.8175 66.7681 36.1712C66.7239 36.5027 66.5803 36.7679 66.3371 36.9668C66.094 37.1436 65.7514 37.232 65.3094 37.232C64.8232 37.232 64.4364 37.1105 64.149 36.8674C63.8617 36.6242 63.6075 36.2485 63.3865 35.7402L61.0658 30.3694L62.624 31.2976H48.5008L50.0258 30.3694L47.7382 35.7402C47.5172 36.2706 47.2741 36.6574 47.0089 36.9005C46.7436 37.1215 46.39 37.232 45.948 37.232ZM55.5292 17.4396L50.5231 29.3085L49.6943 28.5128H61.3973L60.6348 29.3085L55.5955 17.4396H55.5292Z" fill="white"/>
<path d="M75.3325 37.2984C73.6086 37.2984 72.3045 36.8011 71.4204 35.8065C70.5585 34.7898 70.1275 33.331 70.1275 31.4303V15.0858C70.1275 14.5332 70.2711 14.1133 70.5585 13.8259C70.8458 13.5386 71.2547 13.395 71.7851 13.395C72.3156 13.395 72.7245 13.5386 73.0118 13.8259C73.3212 14.1133 73.4759 14.5332 73.4759 15.0858V31.2313C73.4759 32.3364 73.697 33.1653 74.139 33.7178C74.6031 34.2483 75.2662 34.5135 76.1282 34.5135C76.3271 34.5135 76.5039 34.5135 76.6586 34.5135C76.8134 34.4914 76.9681 34.4693 77.1228 34.4472C77.388 34.4251 77.5759 34.5024 77.6864 34.6793C77.7969 34.834 77.8522 35.1655 77.8522 35.6739C77.8522 36.138 77.7527 36.5027 77.5538 36.7679C77.3549 37.011 77.0344 37.1657 76.5923 37.232C76.3934 37.2542 76.1834 37.2652 75.9624 37.2652C75.7414 37.2873 75.5314 37.2984 75.3325 37.2984Z" fill="white"/>
<path d="M86.8009 37.2984C85.4748 37.2984 84.3586 37.0663 83.4524 36.6021C82.5463 36.138 81.8721 35.4528 81.4301 34.5466C80.9881 33.6405 80.767 32.5354 80.767 31.2313V23.4072H78.7778C78.3358 23.4072 77.9932 23.2967 77.7501 23.0757C77.507 22.8325 77.3854 22.5121 77.3854 22.1142C77.3854 21.6943 77.507 21.3738 77.7501 21.1528C77.9932 20.9318 78.3358 20.8213 78.7778 20.8213H80.767V17.4065C80.767 16.8539 80.9107 16.434 81.198 16.1467C81.5075 15.8593 81.9274 15.7157 82.4578 15.7157C82.9883 15.7157 83.3972 15.8593 83.6845 16.1467C83.9718 16.434 84.1155 16.8539 84.1155 17.4065V20.8213H87.9944C88.4365 20.8213 88.779 20.9318 89.0222 21.1528C89.2653 21.3738 89.3868 21.6943 89.3868 22.1142C89.3868 22.5121 89.2653 22.8325 89.0222 23.0757C88.779 23.2967 88.4365 23.4072 87.9944 23.4072H84.1155V30.9661C84.1155 32.1375 84.3586 33.0216 84.8449 33.6184C85.3532 34.2151 86.171 34.5135 87.2982 34.5135C87.696 34.5135 88.0386 34.4803 88.3259 34.414C88.6354 34.3256 88.8895 34.2704 89.0885 34.2483C89.3316 34.2483 89.5305 34.3367 89.6852 34.5135C89.8399 34.6682 89.9173 34.9776 89.9173 35.4418C89.9173 35.7733 89.851 36.0827 89.7184 36.3701C89.6079 36.6574 89.3979 36.8453 89.0885 36.9337C88.8232 37.0221 88.4586 37.0994 87.9944 37.1657C87.5524 37.2542 87.1545 37.2984 86.8009 37.2984Z" fill="white"/>
<path d="M98.8803 37.2984C97.2447 37.2984 95.8302 36.9558 94.6367 36.2706C93.4653 35.5854 92.548 34.613 91.885 33.3531C91.2219 32.0933 90.8904 30.6125 90.8904 28.9106C90.8904 27.6066 91.0783 26.4462 91.454 25.4295C91.8297 24.4128 92.3602 23.5398 93.0453 22.8104C93.7526 22.059 94.5925 21.4954 95.565 21.1196C96.5596 20.7218 97.6647 20.5229 98.8803 20.5229C100.494 20.5229 101.886 20.8655 103.058 21.5506C104.251 22.2358 105.179 23.2083 105.842 24.4681C106.506 25.7058 106.837 27.1867 106.837 28.9106C106.837 30.1925 106.649 31.3529 106.273 32.3917C105.898 33.4305 105.356 34.3146 104.649 35.0439C103.964 35.7733 103.124 36.3369 102.129 36.7348C101.157 37.1105 100.074 37.2984 98.8803 37.2984ZM98.8803 34.7124C99.7865 34.7124 100.582 34.4914 101.267 34.0494C101.952 33.6073 102.483 32.9553 102.859 32.0933C103.257 31.2313 103.455 30.1704 103.455 28.9106C103.455 27.0098 103.035 25.5732 102.196 24.6007C101.356 23.6282 100.251 23.142 98.8803 23.142C97.952 23.142 97.1453 23.363 96.4601 23.805C95.775 24.225 95.2335 24.8659 94.8356 25.7279C94.4599 26.5899 94.272 27.6508 94.272 28.9106C94.272 30.7893 94.692 32.2259 95.5318 33.2205C96.3717 34.2151 97.4879 34.7124 98.8803 34.7124Z" fill="white"/>
<path d="M117.924 43.2659C116.731 43.2659 115.571 43.1444 114.443 42.9012C113.338 42.6581 112.333 42.2603 111.426 41.7077C111.095 41.5309 110.874 41.3099 110.763 41.0447C110.653 40.8015 110.62 40.5474 110.664 40.2821C110.73 40.0169 110.852 39.7848 111.029 39.5859C111.205 39.387 111.415 39.2544 111.658 39.1881C111.924 39.1218 112.2 39.166 112.487 39.3207C113.46 39.8511 114.377 40.2048 115.239 40.3816C116.123 40.5805 116.941 40.68 117.692 40.68C119.24 40.68 120.4 40.2821 121.173 39.4865C121.947 38.7129 122.334 37.5636 122.334 36.0385V32.6569H122.632C122.301 33.8725 121.604 34.834 120.544 35.5412C119.483 36.2485 118.256 36.6021 116.864 36.6021C115.405 36.6021 114.134 36.2706 113.051 35.6075C111.968 34.9224 111.128 33.983 110.531 32.7895C109.935 31.5739 109.636 30.1594 109.636 28.5459C109.636 27.3303 109.802 26.2363 110.133 25.2638C110.487 24.2913 110.973 23.4514 111.592 22.7441C112.233 22.0369 112.996 21.4954 113.88 21.1196C114.786 20.7218 115.781 20.5229 116.864 20.5229C118.278 20.5229 119.505 20.8765 120.544 21.5838C121.604 22.291 122.29 23.2525 122.599 24.4681L122.267 25.0317V22.28C122.267 21.7274 122.411 21.3075 122.698 21.0202C123.008 20.7328 123.417 20.5892 123.925 20.5892C124.456 20.5892 124.864 20.7328 125.152 21.0202C125.439 21.3075 125.583 21.7274 125.583 22.28V35.6407C125.583 38.1603 124.931 40.0611 123.627 41.343C122.323 42.625 120.422 43.2659 117.924 43.2659ZM117.659 33.983C118.632 33.983 119.461 33.762 120.146 33.32C120.831 32.8779 121.361 32.248 121.737 31.4303C122.113 30.6125 122.301 29.651 122.301 28.5459C122.301 26.8883 121.881 25.5732 121.041 24.6007C120.223 23.6282 119.096 23.142 117.659 23.142C116.709 23.142 115.891 23.363 115.206 23.805C114.521 24.2471 113.979 24.877 113.581 25.6948C113.206 26.4904 113.018 27.4408 113.018 28.5459C113.018 30.2257 113.438 31.5518 114.278 32.5243C115.117 33.4968 116.245 33.983 117.659 33.983Z" fill="white"/>
<path d="M131.94 37.1989C131.409 37.1989 131.001 37.0442 130.713 36.7348C130.426 36.4032 130.282 35.9501 130.282 35.3755V22.4458C130.282 21.8711 130.426 21.4291 130.713 21.1196C131.001 20.8102 131.409 20.6555 131.94 20.6555C132.47 20.6555 132.879 20.8102 133.167 21.1196C133.476 21.4291 133.631 21.8711 133.631 22.4458V35.3755C133.631 35.9501 133.487 36.4032 133.2 36.7348C132.912 37.0442 132.492 37.1989 131.94 37.1989ZM131.94 17.2076C131.277 17.2076 130.757 17.0418 130.382 16.7103C130.028 16.3787 129.851 15.9146 129.851 15.3178C129.851 14.699 130.028 14.2348 130.382 13.9254C130.757 13.5939 131.277 13.4281 131.94 13.4281C132.603 13.4281 133.111 13.5939 133.465 13.9254C133.841 14.2348 134.029 14.699 134.029 15.3178C134.029 15.9146 133.841 16.3787 133.465 16.7103C133.111 17.0418 132.603 17.2076 131.94 17.2076Z" fill="white"/>
<path d="M145.472 37.2984C143.814 37.2984 142.378 36.9558 141.162 36.2706C139.968 35.5633 139.04 34.5798 138.377 33.32C137.714 32.0381 137.382 30.5351 137.382 28.8112C137.382 27.5292 137.57 26.3799 137.946 25.3632C138.322 24.3244 138.852 23.4514 139.537 22.7441C140.245 22.0369 141.096 21.4954 142.09 21.1196C143.107 20.7218 144.234 20.5229 145.472 20.5229C146.245 20.5229 147.052 20.6444 147.892 20.8876C148.754 21.1086 149.55 21.4843 150.279 22.0148C150.566 22.1916 150.743 22.4126 150.809 22.6778C150.898 22.921 150.909 23.1751 150.843 23.4404C150.798 23.7056 150.677 23.9376 150.478 24.1366C150.301 24.3134 150.08 24.4239 149.815 24.4681C149.55 24.4902 149.262 24.4128 148.953 24.236C148.422 23.8603 147.881 23.5951 147.328 23.4404C146.776 23.2635 146.245 23.1751 145.737 23.1751C144.941 23.1751 144.234 23.3077 143.615 23.573C143.018 23.8161 142.51 24.1808 142.09 24.667C141.67 25.1312 141.35 25.7169 141.129 26.4241C140.93 27.1314 140.83 27.9381 140.83 28.8443C140.83 30.6567 141.25 32.0823 142.09 33.1211C142.952 34.1378 144.168 34.6461 145.737 34.6461C146.245 34.6461 146.776 34.5687 147.328 34.414C147.881 34.2593 148.422 33.9941 148.953 33.6184C149.262 33.4415 149.55 33.3752 149.815 33.4194C150.08 33.4636 150.29 33.5852 150.445 33.7841C150.622 33.9609 150.732 34.182 150.776 34.4472C150.843 34.6903 150.832 34.9445 150.743 35.2097C150.655 35.4749 150.467 35.696 150.18 35.8728C149.472 36.3811 148.699 36.7458 147.859 36.9668C147.041 37.1878 146.245 37.2984 145.472 37.2984Z" fill="white"/>
</svg>
