<svg width="142" height="140" viewBox="0 0 142 140" fill="none" xmlns="http://www.w3.org/2000/svg">
<path fill-rule="evenodd" clip-rule="evenodd" d="M72.5995 0.0037947C105.303 0.348734 128.428 26.6043 137.957 55.5511C146.877 82.6469 140.051 112.907 115.221 129.476C90.6316 145.885 57.6371 141.976 33.0614 125.549C8.25769 108.97 -6.07106 81.3034 2.4891 54.1223C11.9022 24.2329 38.9531 -0.351092 72.5995 0.0037947Z" fill="#0000FF"/>
<path d="M77.0423 52.0858C71.8137 52.0858 66.6708 54.3144 62.7279 58.7287V37H54.9707V73.6003C54.9707 85.4718 64.6136 95.1147 76.4851 95.1147C88.3566 95.1147 97.9996 85.4718 97.9996 73.6003C97.9996 61.7287 88.9138 52.0858 77.0423 52.0858ZM76.4851 86.8432C69.1565 86.8432 63.2422 80.9289 63.2422 73.6003C63.2422 66.3145 69.1565 60.3573 76.4851 60.3573C83.8138 60.3573 89.7281 66.2716 89.7281 73.6003C89.7281 80.886 83.8138 86.8432 76.4851 86.8432Z" fill="white"/>
<path d="M49.3143 95.1145C52.2493 95.1145 54.6286 92.7352 54.6286 89.8002C54.6286 86.8652 52.2493 84.4858 49.3143 84.4858C46.3793 84.4858 44 86.8652 44 89.8002C44 92.7352 46.3793 95.1145 49.3143 95.1145Z" fill="white"/>
</svg>
