<svg width="329" height="80" viewBox="0 0 329 80" fill="none" xmlns="http://www.w3.org/2000/svg">
<g clip-path="url(#clip0_642_4182)">
<path d="M57.3614 6.96298C57.36 5.58825 56.941 4.24478 56.1574 3.10239C55.3737 1.96 54.2606 1.06998 52.9588 0.544826C51.6569 0.0196765 50.2247 -0.117024 48.8432 0.152002C47.4617 0.421028 46.193 1.0837 45.1974 2.05626C44.2018 3.02882 43.524 4.26762 43.2497 5.61603C42.9753 6.96445 43.1168 8.36195 43.6562 9.63191C44.1957 10.9019 45.1088 11.9873 46.2802 12.7509C47.4515 13.5145 48.8286 13.9221 50.2373 13.9221C52.1276 13.921 53.9401 13.1872 55.2761 11.8822C56.6121 10.5771 57.3622 8.80768 57.3614 6.96298Z" fill="#010B40"/>
<path d="M32.3332 16.8565C34.7027 18.04 36.6755 19.8607 38.0184 22.1036C39.3656 24.3516 40.0402 26.9761 40.042 29.9768V53.2819C40.0409 53.5535 39.9299 53.8138 39.7332 54.006C39.5365 54.1982 39.27 54.3068 38.9916 54.3083H28.6744C28.5364 54.3081 28.3999 54.2814 28.2725 54.2297C28.1451 54.1781 28.0294 54.1024 27.932 54.0071C27.8346 53.9118 27.7574 53.7987 27.7048 53.6742C27.6522 53.5498 27.6252 53.4165 27.6254 53.2819V32.77C27.6254 30.4982 26.985 28.772 25.7041 27.5914C24.4233 26.4108 22.6203 25.8178 20.2952 25.8123C17.9242 25.8123 16.0179 26.414 14.5763 27.6174C13.1346 28.8209 12.4143 30.5133 12.4152 32.6948V53.275C12.4154 53.4096 12.3884 53.543 12.3358 53.6674C12.2832 53.7918 12.206 53.9049 12.1086 54.0003C12.0112 54.0956 11.8955 54.1712 11.7681 54.2229C11.6407 54.2746 11.5042 54.3013 11.3663 54.3014H1.04897C0.770625 54.3004 0.504033 54.1918 0.307471 53.9995C0.11091 53.8071 0.000368421 53.5467 0 53.275V4.07289C0 3.80104 0.110658 3.54031 0.307643 3.34807C0.504627 3.15584 0.7718 3.04785 1.05038 3.04785H3.69806C6.01039 3.04967 8.22732 3.94753 9.86146 5.54405C11.4956 7.14057 12.4132 9.30505 12.4124 11.5616V17.7748C12.4133 17.883 12.4454 17.9888 12.505 18.08C12.565 18.1714 12.6507 18.2441 12.7518 18.2894C12.8525 18.335 12.9644 18.3517 13.0745 18.3373C13.1845 18.323 13.2881 18.2784 13.373 18.2087C14.6232 17.2147 16.049 16.4522 17.5802 15.9588C19.6266 15.2922 21.7714 14.9584 23.9287 14.9707C27.0897 14.9789 29.8912 15.6075 32.3332 16.8565Z" fill="#0511F2"/>
<path d="M125.368 17.1493C127.739 18.3323 129.712 20.1531 131.056 22.3963C132.403 24.6444 133.077 27.2688 133.078 30.2696V53.5746C133.078 53.7093 133.051 53.8426 132.999 53.967C132.946 54.0915 132.869 54.2046 132.772 54.2999C132.674 54.3952 132.558 54.4708 132.431 54.5225C132.304 54.5742 132.167 54.6009 132.029 54.6011H121.712C121.574 54.6011 121.437 54.5745 121.31 54.5229C121.182 54.4713 121.066 54.3957 120.969 54.3004C120.871 54.205 120.794 54.0919 120.741 53.9673C120.688 53.8428 120.661 53.7094 120.662 53.5746V33.0628C120.662 30.791 120.021 29.0648 118.74 27.8842C117.459 26.7036 115.657 26.1129 113.334 26.1119C110.961 26.1119 109.054 26.7136 107.612 27.9171C106.171 29.1205 105.448 30.8129 105.444 32.9944V53.5746C105.445 53.7094 105.418 53.8428 105.365 53.9673C105.312 54.0919 105.235 54.205 105.137 54.3004C105.04 54.3957 104.924 54.4713 104.796 54.5229C104.669 54.5745 104.532 54.6011 104.394 54.6011H94.0767C93.7982 54.6003 93.5312 54.4919 93.3343 54.2996C93.1375 54.1072 93.0267 53.8465 93.0264 53.5746V4.36293C93.0264 4.09108 93.137 3.83035 93.334 3.63811C93.531 3.44588 93.7982 3.33789 94.0767 3.33789H96.73C99.0436 3.34043 101.261 4.23966 102.896 5.8378C104.53 7.43594 105.447 9.60211 105.444 11.8599V18.0772C105.444 18.1855 105.477 18.2915 105.537 18.3824C105.598 18.4763 105.687 18.5506 105.791 18.5959C105.891 18.6415 106.003 18.6581 106.113 18.6438C106.224 18.6295 106.327 18.5849 106.412 18.5151C107.662 17.5211 109.088 16.7586 110.619 16.2652C112.665 15.5987 114.809 15.2649 116.966 15.2771C120.126 15.2762 122.927 15.9003 125.368 17.1493Z" fill="#0511F2"/>
<path d="M55.394 15.8682H45.0768C44.9387 15.8682 44.802 15.8947 44.6745 15.9463C44.5469 15.9979 44.4311 16.0736 44.3335 16.1689C44.236 16.2642 44.1586 16.3774 44.1059 16.5019C44.0532 16.6264 44.0262 16.7599 44.0264 16.8946V53.2816C44.0262 53.4163 44.0532 53.5498 44.1059 53.6743C44.1586 53.7988 44.236 53.912 44.3335 54.0073C44.4311 54.1026 44.5469 54.1783 44.6745 54.2299C44.802 54.2815 44.9387 54.308 45.0768 54.308H55.394C55.532 54.3078 55.6685 54.2811 55.7959 54.2295C55.9232 54.1778 56.039 54.1021 56.1364 54.0068C56.2338 53.9115 56.311 53.7984 56.3636 53.674C56.4162 53.5495 56.4432 53.4162 56.443 53.2816V16.8946C56.4432 16.76 56.4162 16.6266 56.3636 16.5022C56.311 16.3778 56.2338 16.2647 56.1364 16.1694C56.039 16.0741 55.9232 15.9984 55.7959 15.9467C55.6685 15.895 55.532 15.8683 55.394 15.8682Z" fill="#0511F2"/>
<path d="M90.2776 44.5873V53.0833C90.2786 53.2918 90.2138 53.4955 90.0922 53.6668C89.9705 53.8382 89.7978 53.9689 89.5975 54.0413C87.6716 54.7283 85.3417 55.0718 82.608 55.0718C77.1659 55.0718 73.0728 53.7767 70.3289 51.1865C67.5849 48.5963 66.2124 44.9404 66.2115 40.2189V26.9043C66.2119 26.818 66.1948 26.7326 66.1611 26.6528C66.1275 26.573 66.0781 26.5005 66.0156 26.4395C65.9532 26.3784 65.879 26.33 65.7973 26.297C65.7157 26.2641 65.6281 26.2472 65.5397 26.2474H60.6314C60.3528 26.2467 60.0859 26.1383 59.889 25.9459C59.6922 25.7535 59.5814 25.4929 59.5811 25.221V17.1876C59.5814 16.9157 59.6922 16.655 59.889 16.4627C60.0859 16.2703 60.3528 16.1619 60.6314 16.1612H65.68C65.8589 16.1612 66.0305 16.0918 66.157 15.9684C66.2835 15.8449 66.3545 15.6775 66.3545 15.5029V9.86037C66.3551 9.66577 66.4119 9.47525 66.5183 9.31066C66.6247 9.14607 66.7764 9.01407 66.9561 8.92975L77.1346 4.24246C77.2949 4.16965 77.4714 4.13719 77.6478 4.14804C77.8242 4.1591 77.9948 4.21344 78.1438 4.30603C78.2929 4.39862 78.4156 4.52645 78.5005 4.67767C78.585 4.8288 78.6294 4.99818 78.6295 5.17034V15.5029C78.6295 15.6775 78.7006 15.8449 78.8271 15.9684C78.9536 16.0918 79.1252 16.1612 79.3041 16.1612H88.8823C89.1609 16.1619 89.4278 16.2703 89.6247 16.4627C89.8215 16.655 89.9323 16.9157 89.9327 17.1876V25.221C89.9323 25.4929 89.8215 25.7535 89.6247 25.9459C89.4278 26.1383 89.1609 26.2467 88.8823 26.2474H79.2858C79.1973 26.2472 79.1096 26.2641 79.0278 26.297C78.946 26.3299 78.8716 26.3783 78.8089 26.4393C78.7463 26.5003 78.6966 26.5728 78.6627 26.6526C78.6287 26.7324 78.6113 26.8179 78.6113 26.9043V39.2062C78.6113 40.9333 79.1348 42.1947 80.1819 42.9902C81.2291 43.7858 82.5894 44.1836 84.2629 44.1836C85.8465 44.1852 87.4241 43.9917 88.958 43.6075C89.1123 43.5686 89.2736 43.5644 89.4298 43.5952C89.586 43.6261 89.733 43.6911 89.8597 43.7854C89.9866 43.8795 90.0897 44.0007 90.1612 44.1397C90.2326 44.2787 90.2705 44.4318 90.272 44.5873H90.2776Z" fill="#010B40"/>
<path d="M177.37 39.3977H149.226C149.101 39.3974 148.978 39.428 148.868 39.4866C148.758 39.5442 148.666 39.6292 148.602 39.733C148.535 39.8357 148.496 39.9535 148.489 40.0751C148.484 40.197 148.509 40.3184 148.564 40.4282C149.333 41.9299 150.532 43.1812 152.016 44.0302C153.876 45.125 156.178 45.6725 158.923 45.6725C161.015 45.6725 162.841 45.3883 164.401 44.8199C165.958 44.2161 167.434 43.4298 168.797 42.4783C169.015 42.3297 169.283 42.2676 169.547 42.3045C169.81 42.3413 170.05 42.4743 170.216 42.6767L175.338 48.8927C175.507 49.0988 175.589 49.3608 175.566 49.6243C175.543 49.8878 175.417 50.1325 175.214 50.3077C173.591 51.7256 171.544 52.9071 169.072 53.8523C166.21 54.9471 162.827 55.4946 158.923 55.4946C154.133 55.4946 149.994 54.6091 146.506 52.8382C143.019 51.0673 140.368 48.6586 138.552 45.6123C136.74 42.5686 135.834 39.1837 135.833 35.4576C135.8 31.947 136.689 28.4866 138.413 25.4056C140.134 22.34 142.623 19.8858 145.882 18.0428C149.141 16.1998 152.955 15.2806 157.324 15.2852C161.696 15.2852 165.487 16.2044 168.696 18.0428C171.829 19.8111 174.38 22.4147 176.05 25.5479C177.75 28.7084 178.599 32.1954 178.597 36.0091C178.601 36.855 178.54 37.6999 178.415 38.5368C178.374 38.7791 178.246 38.9993 178.053 39.1578C177.861 39.3163 177.617 39.4028 177.366 39.4018L177.37 39.3977ZM151.426 26.8877C150.109 27.7644 149.072 28.9872 148.437 30.4145C148.389 30.5245 148.369 30.6446 148.379 30.764C148.39 30.8835 148.43 30.9985 148.498 31.0988C148.565 31.198 148.657 31.2793 148.764 31.3355C148.871 31.3919 148.992 31.4211 149.113 31.4204H165.548C165.668 31.4202 165.787 31.3912 165.893 31.3359C166 31.2805 166.091 31.2005 166.158 31.1029C166.225 31.0047 166.267 30.8919 166.28 30.7744C166.291 30.6576 166.274 30.5398 166.229 30.4309C165.624 28.9938 164.6 27.7615 163.284 26.8864C161.68 25.818 159.688 25.2838 157.309 25.2838C154.994 25.2893 153.034 25.8262 151.43 26.8946L151.426 26.8877Z" fill="#010B40"/>
<path d="M288.548 39.398H260.404C260.279 39.3978 260.157 39.4284 260.047 39.4871C259.938 39.5457 259.846 39.6304 259.78 39.7333C259.713 39.836 259.674 39.9538 259.668 40.0754C259.661 40.1972 259.686 40.3188 259.74 40.4285C260.51 41.9301 261.71 43.1817 263.193 44.0319C265.055 45.1267 267.357 45.6741 270.1 45.6741C272.193 45.6741 274.016 45.3895 275.569 44.8202C277.127 44.2167 278.603 43.4304 279.966 42.4786C280.184 42.3302 280.453 42.2682 280.717 42.305C280.98 42.3418 281.22 42.4747 281.388 42.677L286.51 48.893C286.679 49.0999 286.759 49.3618 286.736 49.625C286.713 49.8882 286.587 50.1326 286.384 50.308C284.761 51.7259 282.714 52.9074 280.242 53.8526C277.381 54.9474 273.997 55.4949 270.09 55.4949C265.3 55.4949 261.162 54.6094 257.673 52.8385C254.185 51.0676 251.534 48.6594 249.721 45.6139C247.913 42.5648 247.01 39.1772 247.01 35.4511C246.976 31.9398 247.863 28.4785 249.587 25.3963C251.308 22.3289 253.799 19.8747 257.058 18.0335C260.317 16.1924 264.13 15.2731 268.497 15.2759C272.869 15.2759 276.659 16.1951 279.869 18.0335C283.005 19.8007 285.559 22.4049 287.23 25.54C288.928 28.6995 289.777 32.1866 289.777 36.0012C289.779 36.8471 289.718 37.6919 289.593 38.5289C289.552 38.7709 289.426 38.9911 289.235 39.1508C289.044 39.3105 288.802 39.3995 288.551 39.4021L288.548 39.398ZM262.604 26.888C261.287 27.7647 260.251 28.9875 259.616 30.4148C259.567 30.5242 259.548 30.6437 259.558 30.7624C259.568 30.8812 259.609 30.9956 259.676 31.095C259.742 31.1947 259.834 31.2765 259.941 31.333C260.048 31.3894 260.168 31.4186 260.29 31.4179H276.725C276.845 31.4192 276.965 31.3905 277.071 31.3345C277.178 31.2793 277.269 31.1988 277.336 31.1004C277.403 31.0027 277.445 30.8904 277.457 30.7734C277.469 30.656 277.451 30.5374 277.405 30.4285C276.8 28.9911 275.776 27.7587 274.46 26.8839C272.855 25.8156 270.862 25.2814 268.483 25.2814C266.171 25.2868 264.213 25.8238 262.61 26.8921L262.604 26.888Z" fill="#010B40"/>
<path d="M237.09 17.1148C239.444 18.308 241.393 20.1427 242.699 22.3961C244.046 24.6907 244.72 27.3603 244.723 30.4048V53.5744C244.722 53.846 244.611 54.1063 244.414 54.2985C244.218 54.4907 243.951 54.5994 243.673 54.6008H233.354C233.076 54.5994 232.809 54.4907 232.612 54.2985C232.416 54.1063 232.305 53.846 232.304 53.5744V32.4508C232.304 30.4035 231.746 28.8242 230.631 27.7129C229.515 26.6016 227.981 26.0455 226.027 26.0446C224.072 26.0446 222.409 26.5921 221.038 27.6869C219.668 28.7817 218.982 30.3483 218.981 32.3865V53.5799C218.981 53.7145 218.954 53.8478 218.902 53.9722C218.849 54.0967 218.772 54.2098 218.674 54.3051C218.577 54.4004 218.461 54.476 218.334 54.5277C218.207 54.5794 218.07 54.6061 217.932 54.6063H207.615C207.336 54.6048 207.07 54.4962 206.873 54.304C206.677 54.1118 206.566 53.8515 206.564 53.5799V32.4508C206.564 30.4035 206.03 28.8242 204.96 27.7129C203.891 26.6016 202.379 26.0455 200.426 26.0446C198.426 26.0446 196.74 26.5921 195.368 27.6869C193.995 28.7817 193.31 30.3492 193.311 32.3892V53.5799C193.311 53.7146 193.284 53.848 193.231 53.9726C193.178 54.0971 193.101 54.2102 193.003 54.3056C192.906 54.4009 192.79 54.4765 192.662 54.5281C192.535 54.5797 192.398 54.6063 192.26 54.6063H181.943C181.664 54.6056 181.397 54.4971 181.201 54.3048C181.004 54.1124 180.893 53.8517 180.893 53.5799V17.1874C180.893 16.9155 181.004 16.6548 181.201 16.4625C181.397 16.2701 181.664 16.1617 181.943 16.1609H191.562C191.7 16.1609 191.837 16.1875 191.964 16.2391C192.092 16.2907 192.208 16.3663 192.305 16.4617C192.403 16.557 192.48 16.6701 192.533 16.7947C192.585 16.9192 192.612 17.0526 192.612 17.1874V17.7225C192.612 17.8704 192.654 18.0155 192.734 18.1413C192.795 18.2348 192.875 18.3146 192.969 18.3755C193.064 18.4363 193.17 18.4767 193.282 18.4939C193.394 18.5112 193.508 18.5049 193.618 18.4754C193.727 18.446 193.828 18.3941 193.915 18.3233C194.996 17.4401 196.231 16.7536 197.561 16.2964C199.508 15.6159 201.56 15.2705 203.628 15.2755C205.966 15.25 208.283 15.7021 210.431 16.603C212.115 17.3136 213.634 18.3484 214.899 19.6453C214.995 19.7438 215.11 19.8225 215.238 19.8766C215.366 19.931 215.503 19.9603 215.642 19.9628C215.781 19.965 215.919 19.9399 216.047 19.8889C216.177 19.8386 216.294 19.7637 216.394 19.6685C217.876 18.2483 219.662 17.1667 221.625 16.5017C223.954 15.6896 226.408 15.273 228.882 15.27C231.961 15.2737 234.698 15.8886 237.09 17.1148Z" fill="#010B40"/>
<path d="M311.006 46.2161C312.771 46.2161 314.224 45.921 315.365 45.3307C316.506 44.7403 317.074 43.9908 317.072 43.0821C317.072 42.6647 316.858 42.2979 316.411 41.9558C315.964 41.6137 315.281 41.3769 314.352 41.2414L304.928 39.8086C300.508 39.127 297.194 37.763 294.987 35.7166C292.78 33.6701 291.675 31.1488 291.673 28.1526C291.673 24.1564 293.301 21.0088 296.558 18.7096C299.814 16.4104 304.325 15.2636 310.092 15.2691C313.292 15.2858 316.479 15.6862 319.579 16.4611C322.422 17.148 325.142 18.2517 327.646 19.7346C327.767 19.8076 327.873 19.904 327.955 20.0179C328.038 20.1324 328.096 20.2618 328.127 20.3984C328.155 20.5339 328.155 20.6735 328.127 20.809C328.099 20.9462 328.042 21.0762 327.96 21.1908L323.503 27.5327C323.348 27.7477 323.115 27.8973 322.851 27.9511C322.588 28.005 322.313 27.9591 322.082 27.8228C320.468 26.8999 318.749 26.165 316.959 25.6331C314.648 24.9101 312.235 24.5408 309.807 24.5383C308.326 24.5124 306.854 24.7791 305.481 25.3224C304.226 25.8452 303.599 26.4469 303.599 27.1276C303.599 27.675 303.913 28.1312 304.54 28.4961C305.167 28.8611 306.249 29.1562 307.784 29.3816L316.086 30.5394C320.457 31.178 323.701 32.4845 325.817 34.4589C327.933 36.4333 328.991 38.966 328.992 42.0571C328.992 44.8307 328.236 47.2389 326.724 49.2817C325.212 51.3244 323.084 52.8905 320.338 53.9799C317.593 55.0747 314.407 55.6222 310.781 55.6222C306.922 55.6165 303.082 55.0886 299.372 54.0538C296.023 53.1305 293.249 51.9239 291.049 50.434C290.82 50.2806 290.662 50.0453 290.61 49.7792C290.557 49.5131 290.614 49.2374 290.769 49.0121L295.269 42.443C295.345 42.3304 295.444 42.234 295.559 42.1597C295.674 42.0853 295.803 42.0336 295.938 42.0078C296.073 41.982 296.213 41.9825 296.348 42.0093C296.483 42.0361 296.612 42.0886 296.726 42.1638C300.898 44.8653 305.659 46.2161 311.006 46.2161Z" fill="#010B40"/>
<path fill-rule="evenodd" clip-rule="evenodd" d="M30.1763 77.6913C29.7253 78.0689 29.2006 78.3534 28.6337 78.5274C27.9664 78.7161 27.2739 78.8061 26.5792 78.7943C25.6836 78.8087 24.7991 78.599 24.0101 78.1853C23.2767 77.7956 22.6674 77.2166 22.2487 76.5116C21.818 75.7693 21.5982 74.9284 21.612 74.0755C21.5979 73.2247 21.8131 72.3851 22.2361 71.6409C22.6442 70.9292 23.2454 70.3411 23.9736 69.9412C24.7367 69.5296 25.5967 69.3197 26.4684 69.3321C27.1381 69.3234 27.8037 69.4352 28.4318 69.662C28.9759 69.8484 29.4724 70.1471 29.8874 70.5378L29.1652 71.463C28.8278 71.1588 28.433 70.9217 28.0026 70.765C27.5169 70.5753 26.9972 70.4822 26.474 70.4913C25.8358 70.4836 25.2068 70.6409 24.651 70.947C24.1072 71.2505 23.659 71.6935 23.3552 72.228C23.0468 72.7977 22.8865 73.4326 22.8884 74.0769C22.8904 74.7212 23.0545 75.3552 23.3664 75.9231C23.6772 76.4581 24.1353 76.8976 24.6888 77.1917C25.2828 77.5017 25.9478 77.659 26.6213 77.6488C27.0568 77.6559 27.4917 77.6132 27.9171 77.5215C28.2887 77.4267 28.6433 77.2771 28.9689 77.0781V74.6421H26.23V73.5268H30.1805L30.1763 77.6913ZM7.95146 78.6301V69.4977H6.72859V73.1764H1.22427V69.4977H0V78.6301H1.22427V74.3041H6.72859V78.6301H7.95146ZM15.6645 78.6301V69.4977H14.4417V78.6301H15.6645ZM43.0431 78.6301H44.2674V69.4977H43.0431V73.1764H37.5388V69.4977H36.3159V78.6301H37.5388V74.3041H43.0431V78.6301ZM67.3813 74.0632C67.3887 74.7878 67.2387 75.5056 66.941 76.1694C66.6718 76.7808 66.2614 77.3232 65.742 77.7542L66.9157 79.302L66.0589 79.9986L64.8122 78.3495C64.1623 78.6492 63.4512 78.8012 62.7324 78.7943C61.8914 78.8066 61.0626 78.5962 60.3344 78.1853C59.6356 77.7817 59.0644 77.1978 58.6838 76.4979C58.2892 75.7441 58.0835 74.9097 58.0835 74.0632C58.0835 73.2168 58.2892 72.3824 58.6838 71.6286C59.0648 70.9289 59.6359 70.3451 60.3344 69.9412C61.0626 69.5303 61.8914 69.3198 62.7324 69.3321C63.5692 69.3188 64.3937 69.5294 65.1165 69.9412C65.8205 70.3422 66.3964 70.9265 66.7797 71.6286C67.1854 72.3781 67.3899 73.2157 67.3743 74.0632H67.3813ZM62.7324 77.6406C63.192 77.6446 63.6471 77.5512 64.0661 77.3669L62.9891 75.9464L63.8305 75.2484L64.9931 76.7839C65.3485 76.4469 65.6276 76.0408 65.8121 75.5919C66.0128 75.104 66.1129 74.5821 66.1066 74.0564C66.1175 73.417 65.9657 72.7851 65.6648 72.2171C65.3982 71.6878 64.9828 71.2435 64.4672 70.9361C64.0781 70.7019 63.6435 70.5489 63.1908 70.4868C62.7381 70.4246 62.2772 70.4547 61.837 70.575C61.3968 70.6954 60.9869 70.9034 60.6332 71.186C60.2795 71.4686 59.9896 71.8197 59.7819 72.2171C59.4894 72.7876 59.3427 73.4186 59.3541 74.0564C59.3434 74.698 59.4901 75.3329 59.7819 75.908C60.0582 76.4357 60.4807 76.8771 61.0013 77.1821C61.5219 77.4872 62.1197 77.6437 62.7268 77.6338L62.7324 77.6406ZM74.9205 78.3755C75.5428 78.6516 76.2185 78.7944 76.902 78.7944C77.5856 78.7944 78.2613 78.6516 78.8836 78.3755C79.4368 78.1048 79.8962 77.6812 80.2046 77.1575C80.5253 76.5915 80.6855 75.9524 80.6688 75.3059V69.4977H79.446V75.1663C79.446 75.9372 79.2178 76.5421 78.7616 76.981C78.3054 77.4198 77.6855 77.6397 76.902 77.6406C76.127 77.6406 75.5071 77.4207 75.0425 76.981C74.5778 76.5412 74.3493 75.9363 74.3567 75.1663V69.4977H73.1339V75.3059C73.1194 75.9521 73.2795 76.5908 73.598 77.1575C73.9092 77.6771 74.3655 78.0995 74.9135 78.3755H74.9205ZM92.3646 76.1941H87.9612L87.0076 78.6301H85.7356L89.4295 69.4977H90.9258L94.607 78.6301H93.3098L92.3646 76.1941ZM91.9439 75.0992L90.1699 70.5721L88.4015 75.1033L91.9439 75.0992ZM106.773 78.6301V77.4873H101.427V69.4977H100.204V78.6301H106.773ZM113.758 78.6301H112.535V69.4977H113.758V78.6301ZM123.837 70.6391H126.943V69.4977H119.51V70.6391H122.619V78.6301H123.844L123.837 70.6391ZM136.495 75.5098V78.6301H135.272V75.5344L131.638 69.4977H133.057L135.896 74.3301L138.734 69.4977H140.104L136.495 75.5098ZM159.255 69.8522C158.76 69.6032 158.209 69.4812 157.652 69.4977H153.358V78.6301H154.582V74.935H157.652C158.203 74.9501 158.749 74.8321 159.242 74.5915C159.673 74.3724 160.027 74.0326 160.258 73.6157C160.491 73.1817 160.609 72.6974 160.6 72.2075C160.61 71.7217 160.492 71.2416 160.258 70.8129C160.03 70.4016 159.681 70.0669 159.255 69.8522ZM158.9 73.379C158.598 73.6664 158.17 73.81 157.616 73.81H154.582V70.6268H157.616C158.169 70.6268 158.597 70.7705 158.9 71.0579C159.058 71.2064 159.181 71.3863 159.261 71.5854C159.341 71.7845 159.376 71.998 159.365 72.2116C159.376 72.4271 159.34 72.6425 159.26 72.8436C159.18 73.0448 159.058 73.2272 158.9 73.379ZM170.247 74.7612H167.568V78.6301H166.358V69.4977H170.969C171.47 69.4859 171.965 69.6085 172.4 69.8522C172.804 70.0689 173.135 70.3949 173.355 70.791C173.579 71.2053 173.692 71.668 173.684 72.1363C173.698 72.7403 173.5 73.3307 173.123 73.81C172.746 74.277 172.206 74.5926 171.606 74.6969L174.224 78.6301H172.768L170.247 74.7612ZM167.568 73.6458H170.785C171.3 73.6458 171.703 73.509 171.997 73.227C172.288 72.9339 172.452 72.5424 172.454 72.1344C172.456 71.7264 172.296 71.3333 172.008 71.0374C171.715 70.7636 171.307 70.6268 170.785 70.6268H167.568V73.6458ZM179.857 78.6301H186.855L186.635 77.5133H181.082V74.4191H184.812V73.29H181.082V70.6131H186.512L186.732 69.4977H179.86L179.857 78.6301ZM202.381 78.6301H201.195V71.0442L197.855 78.4344H197.014L193.711 71.166V78.6246H192.525V69.4923H194.177L197.454 76.7593L200.733 69.4923H202.384L202.381 78.6301ZM208.867 78.6301H210.091V69.4977H208.866L208.867 78.6301ZM220.169 78.7943C219.484 78.8083 218.805 78.6649 218.187 78.3755C217.637 78.1001 217.179 77.6776 216.866 77.1575C216.548 76.5908 216.387 75.9521 216.402 75.3059V69.4977H217.625V75.1663C217.625 75.9372 217.853 76.5421 218.309 76.981C218.765 77.4198 219.385 77.6397 220.169 77.6406C220.951 77.6406 221.571 77.4207 222.028 76.981C222.485 76.5412 222.714 75.9363 222.713 75.1663V69.4977H223.937V75.3059C223.953 75.9525 223.792 76.5917 223.471 77.1575C223.163 77.6812 222.703 78.1048 222.15 78.3755C221.533 78.6649 220.854 78.8083 220.169 78.7943ZM238.854 78.6301H240.04V69.4977H238.388L235.11 76.7647L231.832 69.4977H230.182V78.6301H231.368V71.1715L234.671 78.4399H235.512L238.853 71.0497L238.854 78.6301ZM260.742 70.6391H257.636V78.6301H256.413V70.6391H253.305V69.4977H260.738L260.742 70.6391ZM273.145 78.6301H274.368V69.4977H273.145V73.1764H267.641V69.4977H266.418V78.6301H267.641V74.3041H273.145V78.6301ZM287.774 78.6301H280.778V69.4977H287.65L287.429 70.6131H281.998V73.29H285.73V74.4191H281.998V77.5133H287.551L287.774 78.6301ZM302.115 78.6301H303.301V69.4977H301.65L298.372 76.7647L295.093 69.4977H293.441V78.6301H294.629V71.1715L297.932 78.4399H298.773L302.114 71.0497L302.115 78.6301ZM316.711 78.6301H309.715V69.4977H316.586L316.366 70.6131H310.935V73.29H314.665V74.4191H310.935V77.5133H316.488L316.711 78.6301ZM323.25 78.3892C323.961 78.6367 324.71 78.7609 325.465 78.756C326.094 78.7685 326.72 78.6519 327.3 78.4138C327.8 78.2155 328.232 77.8834 328.547 77.4559C328.851 77.028 329.01 76.5176 329 75.997C329.015 75.3992 328.786 74.8201 328.365 74.3862C327.949 73.9455 327.32 73.6413 326.48 73.4734L324.695 73.1176C324.108 72.9999 323.683 72.8434 323.421 72.6481C323.303 72.5606 323.207 72.4474 323.141 72.3175C323.076 72.1875 323.042 72.0444 323.043 71.8995C323.043 71.6288 323.153 71.3693 323.348 71.1769C323.578 70.9423 323.864 70.7677 324.18 70.6692C324.557 70.5387 324.955 70.4743 325.355 70.479C325.832 70.4811 326.304 70.5674 326.749 70.7335C327.238 70.903 327.687 71.1659 328.07 71.5068L328.792 70.5816C328.346 70.1561 327.807 69.8351 327.215 69.6428C326.628 69.4485 326.012 69.35 325.392 69.3513C324.76 69.3414 324.132 69.4535 323.545 69.6811C323.043 69.8651 322.602 70.181 322.273 70.5939C321.961 70.9945 321.797 71.4858 321.807 71.9885C321.798 72.2629 321.847 72.5362 321.95 72.7916C322.053 73.0469 322.209 73.279 322.407 73.4734C322.814 73.862 323.409 74.1358 324.193 74.2945L326.052 74.6627C326.639 74.7804 327.071 74.9578 327.348 75.195C327.482 75.2998 327.59 75.4333 327.663 75.5851C327.736 75.737 327.772 75.9032 327.769 76.0709C327.772 76.3687 327.663 76.6573 327.463 76.8824C327.241 77.129 326.96 77.3173 326.644 77.4299C326.272 77.5618 325.878 77.6263 325.481 77.6201C324.309 77.6266 323.178 77.2009 322.313 76.4281L321.542 77.3861C322.036 77.8304 322.617 78.1718 323.25 78.3892ZM53.0448 75.2073L53.2776 74.0591H49.9316L49.6988 75.2073H53.0448Z" fill="#010B40"/>
</g>
<defs>
<clipPath id="clip0_642_4182">
<rect width="329" height="80" fill="white"/>
</clipPath>
</defs>
</svg>
