<svg width="234" height="75" viewBox="0 0 234 75" fill="none" xmlns="http://www.w3.org/2000/svg">
<path d="M56.9602 7.15228C56.9602 5.73768 56.545 4.35481 55.767 3.17862C54.9891 2.00243 53.8834 1.08572 52.5898 0.544376C51.2961 0.00303455 49.8726 -0.138601 48.4993 0.137373C47.126 0.413347 45.8645 1.09451 44.8744 2.09478C43.8843 3.09505 43.21 4.36948 42.9368 5.75689C42.6636 7.1443 42.8038 8.58244 43.3397 9.88935C43.8755 11.1963 44.783 12.3133 45.9472 13.0992C47.1115 13.8851 48.4803 14.3046 49.8805 14.3046C51.7581 14.3046 53.5589 13.551 54.8866 12.2097C56.2143 10.8684 56.9602 9.04919 56.9602 7.15228Z" fill="#010B40"/>
<path d="M32.1065 17.3244C34.4601 18.5419 36.4199 20.4142 37.7545 22.7204C39.131 25.1872 39.824 27.9833 39.7604 30.8144V54.7627C39.7604 55.0423 39.6517 55.3106 39.4576 55.5098C39.3606 55.6081 39.2454 55.6861 39.1185 55.7393C38.9916 55.7925 38.8555 55.8198 38.7181 55.8197H28.4722C28.1954 55.8187 27.9303 55.7068 27.735 55.5087C27.5396 55.3106 27.4299 55.0424 27.4299 54.7627V33.7031C27.4299 31.3667 26.7941 29.5919 25.5224 28.3786C24.2506 27.1654 22.4623 26.5561 20.1575 26.5508C17.7976 26.5508 15.9044 27.1694 14.478 28.4065C13.0516 29.6436 12.3357 31.384 12.3305 33.6277V54.7627C12.331 54.9014 12.3044 55.0387 12.2523 55.1669C12.2001 55.2951 12.1235 55.4117 12.0266 55.5099C11.9298 55.6081 11.8147 55.686 11.688 55.7391C11.5613 55.7923 11.4254 55.8197 11.2882 55.8197H1.03837C0.901495 55.8192 0.766055 55.7914 0.639796 55.738C0.513537 55.6846 0.39893 55.6066 0.302509 55.5085C0.206089 55.4103 0.129738 55.294 0.0778355 55.166C0.025933 55.0381 -0.000510036 54.901 7.45091e-06 54.7627V4.18393C-0.000510312 4.04532 0.0260714 3.908 0.0782196 3.77979C0.130368 3.65158 0.207052 3.53501 0.30389 3.43681C0.400727 3.33861 0.515807 3.2607 0.642521 3.20753C0.769234 3.15437 0.905088 3.12701 1.0423 3.12701H3.67359C5.9685 3.12701 8.16943 4.048 9.79217 5.68739C11.4149 7.32678 12.3266 9.55029 12.3266 11.8687V18.2621C12.3267 18.3733 12.3581 18.4821 12.417 18.576C12.4776 18.6685 12.5619 18.7427 12.6609 18.7906C12.7615 18.8378 12.8736 18.8544 12.9834 18.8382C13.0926 18.8257 13.1955 18.78 13.2784 18.7071C14.5191 17.687 15.9332 16.9034 17.4515 16.3945C19.4803 15.7113 21.606 15.3678 23.7446 15.3773C26.6472 15.3287 29.5177 15.9971 32.1065 17.3244Z" fill="#0511F2"/>
<path d="M55.005 16.3112H44.7591C44.6222 16.3112 44.4867 16.3384 44.3602 16.3913C44.2338 16.4443 44.1188 16.5218 44.0221 16.6196C43.9253 16.7174 43.8485 16.8334 43.7961 16.9612C43.7438 17.0889 43.7168 17.2259 43.7168 17.3642V54.7628C43.7168 55.0425 43.8265 55.3107 44.0218 55.5088C44.2172 55.7069 44.4823 55.8187 44.7591 55.8198H55.005C55.1422 55.8198 55.2781 55.7924 55.4048 55.7392C55.5315 55.6861 55.6465 55.6081 55.7434 55.5099C55.8402 55.4117 55.9169 55.2952 55.9691 55.167C56.0212 55.0388 56.0478 54.9014 56.0473 54.7628V17.3562C56.0468 17.2184 56.0194 17.0821 55.9667 16.9551C55.9141 16.828 55.8372 16.7127 55.7404 16.6156C55.6436 16.5186 55.5288 16.4417 55.4026 16.3895C55.2765 16.3373 55.1413 16.3106 55.005 16.3112Z" fill="#0511F2"/>
<path d="M96.2678 10.1442C100.029 12.1828 103.136 15.2639 105.224 19.0251C107.237 22.8123 108.291 27.0442 108.291 31.3429C108.291 35.6417 107.237 39.8736 105.224 43.6608C103.137 47.4219 100.03 50.5019 96.2678 52.5376C92.3346 54.7389 87.6541 55.8396 82.2263 55.8396H60.9203C60.6776 55.8385 60.4451 55.7407 60.2735 55.5673C60.1018 55.3939 60.0049 55.159 60.0039 54.9138V7.77206C60.0039 7.52652 60.1005 7.29102 60.2723 7.11739C60.4442 6.94377 60.6773 6.84625 60.9203 6.84625H82.2263C87.6594 6.84625 92.3398 7.94556 96.2678 10.1442ZM91.9413 40.9985C94.233 38.4555 95.3789 35.2343 95.3789 31.335C95.3789 27.4357 94.233 24.2158 91.9413 21.6754C89.6522 19.135 86.3745 17.8661 82.1083 17.8688H73.3138C73.0707 17.8688 72.8376 17.9663 72.6657 18.1399C72.4939 18.3135 72.3973 18.549 72.3973 18.7946V43.8793C72.3973 44.1249 72.4939 44.3604 72.6657 44.534C72.8376 44.7076 73.0707 44.8051 73.3138 44.8051H82.0926C86.3562 44.8051 89.6325 43.5363 91.9216 40.9985H91.9413Z" fill="#010B40"/>
<path d="M120.992 54.0237C117.874 52.3439 115.266 49.8394 113.448 46.7781C111.629 43.7168 110.669 40.2138 110.669 36.6436C110.669 33.0735 111.629 29.5705 113.448 26.5091C115.266 23.4478 117.874 20.9433 120.992 19.2635C124.243 17.4701 128.002 16.5734 132.268 16.5734C136.535 16.5734 140.295 17.4701 143.549 19.2635C146.676 20.9301 149.286 23.4368 151.093 26.5072C152.834 29.5944 153.749 33.0864 153.749 36.6396C153.749 40.1928 152.834 43.6848 151.093 46.7721C149.286 49.8425 146.676 52.3492 143.549 54.0158C140.292 55.8092 136.532 56.7045 132.268 56.7019C128.005 56.6992 124.246 55.8065 120.992 54.0237ZM138.939 43.2754C140.735 41.5747 141.633 39.3642 141.633 36.6436C141.633 33.9231 140.735 31.7125 138.939 30.0118C137.099 28.3685 134.728 27.4614 132.272 27.4614C129.817 27.4614 127.445 28.3685 125.606 30.0118C123.812 31.7125 122.915 33.9231 122.915 36.6436C122.915 39.3642 123.812 41.5747 125.606 43.2754C127.445 44.9187 129.817 45.8258 132.272 45.8258C134.728 45.8258 137.099 44.9187 138.939 43.2754Z" fill="#010B40"/>
<path d="M166.637 54.0237C163.454 52.3872 160.792 49.8764 158.959 46.78C157.177 43.7082 156.258 40.2037 156.3 36.6436C156.27 33.0719 157.251 29.5659 159.128 26.5389C161.052 23.4411 163.771 20.9271 166.995 19.2634C170.511 17.4346 174.419 16.5106 178.373 16.5734C185.02 16.5734 190.272 18.4277 194.129 22.1363C194.297 22.2984 194.398 22.518 194.414 22.7519C194.429 22.9857 194.357 23.2169 194.212 23.3998L188.411 30.5522C188.334 30.6482 188.238 30.7276 188.13 30.7854C188.022 30.8433 187.903 30.8784 187.781 30.8888C187.659 30.8992 187.536 30.8846 187.42 30.8458C187.304 30.8071 187.197 30.7451 187.105 30.6634C184.741 28.527 181.678 27.3507 178.507 27.3615C176.839 27.3647 175.193 27.7491 173.693 28.4859C172.169 29.2113 170.858 30.3246 169.889 31.7164C168.921 33.1624 168.404 34.8681 168.404 36.6137C168.404 38.3594 168.921 40.0651 169.889 41.5111C170.852 42.8974 172.151 44.011 173.661 44.7456C175.148 45.4835 176.783 45.8668 178.44 45.8661C181.951 45.8661 184.907 44.8714 187.309 42.882C187.402 42.8034 187.509 42.7442 187.625 42.7078C187.74 42.6714 187.861 42.6586 187.982 42.67C188.102 42.6815 188.219 42.717 188.326 42.7746C188.433 42.8321 188.527 42.9105 188.603 43.0052L194.334 50.0979C194.483 50.2834 194.555 50.5194 194.537 50.7574C194.519 50.9953 194.411 51.2172 194.236 51.3773C190.376 54.9137 185.088 56.682 178.373 56.682C173.895 56.7005 169.982 55.8144 166.637 54.0237Z" fill="#010B40"/>
<path d="M216.497 47.4595C217.951 47.5156 219.395 47.2114 220.706 46.5734C221.807 45.9853 222.358 45.237 222.358 44.3284C222.344 44.1042 222.279 43.8863 222.168 43.6918C222.056 43.4974 221.902 43.3317 221.717 43.2079C221.125 42.804 220.441 42.5579 219.73 42.4926L210.641 41.0661C206.375 40.3827 203.176 39.0211 201.044 36.9814C200.011 36.0239 199.192 34.8556 198.641 33.554C198.09 32.2524 197.819 30.8472 197.846 29.4317C197.846 25.4423 199.419 22.3019 202.566 20.0105C205.712 17.7191 210.068 16.5734 215.632 16.5734C218.721 16.5898 221.796 16.9902 224.788 17.7655C227.563 18.457 230.216 19.5746 232.655 21.0794C232.761 21.1456 232.854 21.233 232.926 21.3362C232.998 21.4394 233.049 21.5563 233.076 21.68C233.102 21.8036 233.104 21.9313 233.08 22.0555C233.056 22.1797 233.008 22.2977 232.938 22.4026L228.525 28.8953C228.393 29.0906 228.193 29.2273 227.964 29.2769C227.736 29.3264 227.497 29.2851 227.298 29.1615C225.715 28.2117 224.024 27.4579 222.263 26.9165C220.032 26.1957 217.703 25.8284 215.361 25.8277C213.93 25.8032 212.51 26.0736 211.187 26.6224C209.973 27.1522 209.366 27.7522 209.366 28.4224C209.381 28.7121 209.474 28.9922 209.634 29.2324C209.795 29.4727 210.018 29.6639 210.279 29.7853C210.885 30.1483 211.933 30.4423 213.425 30.6674L221.437 31.8238C225.656 32.4595 228.787 33.7641 230.83 35.7376C232.872 37.7112 233.894 40.2396 233.894 43.3231C233.952 45.9009 233.185 48.429 231.707 50.531C230.138 52.6584 227.999 54.2881 225.543 55.2277C222.603 56.3701 219.47 56.9247 216.32 56.8608C212.595 56.8539 208.889 56.3271 205.307 55.2952C202.027 54.3628 199.316 53.1363 197.174 51.6158C196.977 51.4762 196.843 51.2647 196.799 51.0265C196.755 50.7882 196.805 50.542 196.938 50.3403L201.366 43.637C201.432 43.5363 201.516 43.4496 201.615 43.3819C201.714 43.3142 201.825 43.2668 201.942 43.2424C202.059 43.2181 202.179 43.2172 202.296 43.2399C202.414 43.2626 202.525 43.3084 202.625 43.3747C206.673 46.1005 211.298 47.4621 216.497 47.4595Z" fill="#010B40"/>
<path d="M6.11215 67.1283V73.9707H5.17212V70.7323H0.940034V73.9707H0V67.1283H0.940034V69.8859H5.17212V67.1283H6.11215Z" fill="#010B40"/>
<path d="M9.78182 67.1283V73.9707H8.8418V67.1283H9.78182Z" fill="#010B40"/>
<path d="M18.694 73.2674C18.3459 73.5529 17.9447 73.765 17.5141 73.8912C17.002 74.0353 16.4723 74.1049 15.9408 74.0979C15.2585 74.1072 14.584 73.9505 13.9742 73.6409C13.409 73.3572 12.9352 72.9172 12.6079 72.372C12.2806 71.8268 12.1134 71.1989 12.1256 70.5614C12.1166 69.9175 12.2841 69.2835 12.6094 68.7297C12.9307 68.1904 13.3935 67.7516 13.9467 67.4621C14.5374 67.1507 15.1959 66.9936 15.8621 67.0052C16.3731 66.9978 16.8814 67.0798 17.3646 67.2476C17.7791 67.3873 18.1607 67.6118 18.4856 67.9071L17.931 68.6025C17.6681 68.3744 17.3671 68.1955 17.0421 68.074C16.6642 67.9347 16.2644 67.866 15.8621 67.8714C15.373 67.8636 14.89 67.9812 14.458 68.2131C14.0459 68.4312 13.7025 68.7616 13.4668 69.1667C13.2236 69.5857 13.0985 70.0639 13.105 70.5495C13.0974 71.0358 13.2241 71.5146 13.4708 71.9323C13.7163 72.3419 14.0706 72.6736 14.4934 72.8899C14.9519 73.1225 15.4593 73.2397 15.9723 73.2316C16.3093 73.2377 16.6458 73.2044 16.9752 73.1323C17.2583 73.0622 17.5299 72.9512 17.7815 72.8025V70.9787H15.6734V70.1402H18.7137L18.694 73.2674Z" fill="#010B40"/>
<path d="M27.2645 67.1283V73.9707H26.3206V70.7323H22.0885V73.9707H21.1484V67.1283H22.0885V69.8859H26.3206V67.1283H27.2645Z" fill="#010B40"/>
<path d="M32.0628 70.4939L31.8936 71.3601H29.4551L29.6242 70.4939H32.0628Z" fill="#010B40"/>
<path d="M40.6647 72.123C40.4533 72.5892 40.1352 72.9978 39.7365 73.3151L40.6411 74.4754L39.9843 74.9999L39.0246 73.7641C38.5207 73.9895 37.9749 74.1033 37.4238 74.0979C36.7816 74.1073 36.1478 73.9499 35.5831 73.641C35.0514 73.3461 34.6105 72.9089 34.3087 72.3774C34.0068 71.8171 33.8486 71.1894 33.8486 70.5515C33.8486 69.9137 34.0068 69.286 34.3087 68.7257C34.6093 68.1933 35.0505 67.7558 35.5831 67.4621C36.1512 67.162 36.7827 67.0053 37.4238 67.0053C38.0649 67.0053 38.6964 67.162 39.2645 67.4621C39.797 67.7558 40.2382 68.1933 40.5389 68.7257C40.8179 69.2438 40.9744 69.8201 40.9962 70.4095C41.0181 70.9989 40.9046 71.5853 40.6647 72.123ZM38.4504 73.033L37.6205 71.9681L38.2694 71.4436L39.1662 72.5959C39.4351 72.3453 39.6494 72.0408 39.7955 71.7019C39.9481 71.3375 40.0244 70.9452 40.0197 70.5496C40.0278 70.0673 39.9126 69.591 39.6854 69.1668C39.4734 68.7665 39.1528 68.4356 38.7611 68.2131C38.3503 67.9888 37.8907 67.8714 37.4238 67.8714C36.9569 67.8714 36.4973 67.9888 36.0865 68.2131C35.6948 68.4356 35.3742 68.7665 35.1622 69.1668C34.94 69.596 34.8239 70.0731 34.8239 70.5575C34.8239 71.0419 34.94 71.5191 35.1622 71.9482C35.3757 72.3484 35.6959 72.6802 36.0865 72.9059C36.495 73.1361 36.9561 73.2539 37.4238 73.2476C37.7763 73.2494 38.1255 73.1791 38.4504 73.041V73.033Z" fill="#010B40"/>
<path d="M44.5432 73.776C44.1236 73.5787 43.7697 73.2626 43.5245 72.8661C43.2784 72.4484 43.153 71.9693 43.1626 71.4833V67.1124H44.1027V71.3601C44.0886 71.612 44.1289 71.8639 44.2205 72.0985C44.3122 72.3331 44.4531 72.5448 44.6336 72.7191C45.0415 73.0406 45.544 73.2153 46.0614 73.2153C46.5787 73.2153 47.0813 73.0406 47.4891 72.7191C47.6689 72.5444 47.8091 72.3325 47.9001 72.0979C47.9911 71.8634 48.0307 71.6117 48.0162 71.3601V67.1124H48.9601V71.4833C48.9706 71.9702 48.8466 72.4503 48.6022 72.87C48.3589 73.2672 48.0043 73.5825 47.5835 73.776C47.1042 73.9882 46.5866 74.0978 46.0633 74.0978C45.5401 74.0978 45.0225 73.9882 44.5432 73.776Z" fill="#010B40"/>
<path d="M55.6931 72.1468H52.3066L51.5751 73.9707H50.5957L53.4354 67.1283H54.5918L57.4237 73.9707H56.4286L55.6931 72.1468ZM55.3745 71.3283L54.0097 67.9349L52.6449 71.3283H55.3745Z" fill="#010B40"/>
<path d="M64.5198 73.1164V73.9707H59.4893V67.1283H60.4293V73.1164H64.5198Z" fill="#010B40"/>
<path d="M67.6344 67.1283V73.9707H66.6943V67.1283H67.6344Z" fill="#010B40"/>
<path d="M75.5167 67.9826H73.1292V73.9707H72.1853V67.9826H69.7979V67.1283H75.5167V67.9826Z" fill="#010B40"/>
<path d="M80.6066 71.6342V73.9707H79.6666V71.6541L76.874 67.1283H77.9753L80.1582 70.7521L82.3411 67.1283H83.3952L80.6066 71.6342Z" fill="#010B40"/>
<path d="M93.6604 67.5654C94.1756 67.8431 94.6004 68.2654 94.8836 68.7814C95.1652 69.3273 95.3122 69.9339 95.3122 70.5495C95.3122 71.1652 95.1652 71.7718 94.8836 72.3178C94.6026 72.8354 94.1772 73.2582 93.6604 73.5337C93.0818 73.8378 92.4362 73.9882 91.7842 73.9707H89.0664V67.1284H91.7842C92.436 67.1128 93.0812 67.2631 93.6604 67.5654ZM93.1451 72.7986C93.521 72.5899 93.8285 72.2751 94.0301 71.8926C94.2295 71.4742 94.333 71.0159 94.333 70.5515C94.333 70.0872 94.2295 69.6288 94.0301 69.2105C93.8285 68.828 93.521 68.5132 93.1451 68.3045C92.7248 68.0767 92.2532 67.963 91.7764 67.9747H90.0064V73.1403H91.7764C92.2543 73.1483 92.726 73.0306 93.1451 72.7986Z" fill="#010B40"/>
<path d="M98.88 73.6409C98.3498 73.3469 97.9112 72.9093 97.6135 72.3773C97.314 71.8163 97.1572 71.1889 97.1572 70.5515C97.1572 69.9141 97.314 69.2867 97.6135 68.7257C97.9102 68.1929 98.349 67.7551 98.88 67.4621C99.4456 67.1607 100.075 67.0032 100.715 67.0032C101.354 67.0032 101.984 67.1607 102.55 67.4621C103.079 67.7564 103.516 68.194 103.812 68.7257C104.112 69.2867 104.268 69.9141 104.268 70.5515C104.268 71.1889 104.112 71.8163 103.812 72.3773C103.515 72.9082 103.078 73.3456 102.55 73.6409C101.984 73.9423 101.354 74.0998 100.715 74.0998C100.075 74.0998 99.4456 73.9423 98.88 73.6409ZM102.046 72.8899C102.434 72.6628 102.751 72.3312 102.963 71.9323C103.182 71.5023 103.297 71.0254 103.297 70.5416C103.297 70.0577 103.182 69.5808 102.963 69.1508C102.753 68.7516 102.435 68.4209 102.046 68.1972C101.638 67.9729 101.18 67.8554 100.715 67.8554C100.25 67.8554 99.7921 67.9729 99.3834 68.1972C98.9932 68.4203 98.674 68.7511 98.4631 69.1508C98.2459 69.5816 98.1326 70.0581 98.1326 70.5416C98.1326 71.025 98.2459 71.5015 98.4631 71.9323C98.6751 72.3322 98.994 72.664 99.3834 72.8899C99.7921 73.1142 100.25 73.2317 100.715 73.2317C101.18 73.2317 101.638 73.1142 102.046 72.8899Z" fill="#010B40"/>
<path d="M107.942 73.637C107.387 73.3397 106.923 72.8954 106.599 72.3519C106.275 71.8083 106.104 71.1859 106.104 70.5516C106.104 69.9172 106.275 69.2948 106.599 68.7513C106.923 68.2077 107.387 67.7634 107.942 67.4661C108.524 67.1548 109.175 66.9964 109.833 67.0052C110.327 67.0027 110.818 67.0901 111.281 67.2635C111.699 67.4116 112.077 67.6582 112.382 67.9827L111.78 68.6502C111.526 68.3982 111.223 68.2009 110.891 68.0701C110.555 67.9364 110.195 67.8689 109.833 67.8714C109.355 67.8658 108.883 67.9863 108.465 68.2211C108.053 68.447 107.71 68.7805 107.47 69.1867C107.23 69.6023 107.104 70.0746 107.104 70.5555C107.104 71.0364 107.23 71.5087 107.47 71.9244C107.712 72.3306 108.058 72.663 108.473 72.886C108.906 73.1187 109.39 73.2375 109.881 73.2317C110.243 73.233 110.603 73.1684 110.943 73.041C111.275 72.9175 111.577 72.7222 111.828 72.4688L112.437 73.1284C112.131 73.4646 111.745 73.7164 111.316 73.8595C110.854 74.0203 110.369 74.1009 109.881 74.0979C109.206 74.1092 108.54 73.9508 107.942 73.637Z" fill="#010B40"/>
<path d="M115.773 73.776C115.353 73.5787 114.999 73.2626 114.754 72.8661C114.508 72.4484 114.383 71.9693 114.392 71.4833V67.1124H115.34V71.3601C115.326 71.612 115.366 71.8639 115.458 72.0985C115.55 72.3331 115.69 72.5448 115.871 72.7191C116.279 73.0406 116.781 73.2153 117.299 73.2153C117.816 73.2153 118.319 73.0406 118.726 72.7191C118.906 72.5444 119.046 72.3325 119.137 72.0979C119.228 71.8634 119.268 71.6117 119.254 71.3601V67.1124H120.197V71.4833C120.208 71.9702 120.084 72.4503 119.84 72.87C119.596 73.2672 119.242 73.5825 118.821 73.776C118.342 73.9882 117.824 74.0978 117.301 74.0978C116.777 74.0978 116.26 73.9882 115.781 73.776H115.773Z" fill="#010B40"/>
<path d="M130.31 73.9707H129.397V68.2727L126.829 73.8356H126.18L123.639 68.388V73.9747H122.727V67.1323H123.993L126.514 72.58L129.035 67.1323H130.306L130.31 73.9707Z" fill="#010B40"/>
<path d="M138.365 73.9707H132.984V67.1283H138.271L138.101 67.9667H133.924V69.9535H136.792V70.7998H133.924V73.1203H138.196L138.365 73.9707Z" fill="#010B40"/>
<path d="M146.412 67.1283V73.9707H145.429L141.373 68.4674V73.9707H140.461V67.1283H141.468L145.495 72.5959V67.1283H146.412Z" fill="#010B40"/>
<path d="M154.235 67.9826H151.848V73.9707H150.904V67.9826H148.517V67.1283H154.235V67.9826Z" fill="#010B40"/>
<path d="M159.851 72.1468H156.465L155.733 73.9707H154.754L157.594 67.1283H158.774L161.605 73.9707H160.571L159.851 72.1468ZM159.533 71.3283L158.168 67.9349L156.803 71.3283H159.533Z" fill="#010B40"/>
<path d="M167.82 67.9826H165.433V73.9707H164.505V67.9826H162.113V67.1283H167.832L167.82 67.9826Z" fill="#010B40"/>
<path d="M170.927 67.1283V73.9707H169.987V67.1283H170.927Z" fill="#010B40"/>
<path d="M174.971 73.6409C174.442 73.3456 174.006 72.9082 173.708 72.3773C173.409 71.8163 173.252 71.1889 173.252 70.5515C173.252 69.9141 173.409 69.2867 173.708 68.7257C174.005 68.194 174.442 67.7564 174.971 67.4621C175.536 67.1607 176.166 67.0032 176.806 67.0032C177.445 67.0032 178.075 67.1607 178.64 67.4621C179.171 67.7561 179.609 68.1937 179.907 68.7257C180.206 69.2867 180.363 69.9141 180.363 70.5515C180.363 71.1889 180.206 71.8163 179.907 72.3773C179.608 72.9084 179.17 73.3457 178.64 73.6409C178.075 73.9423 177.445 74.0998 176.806 74.0998C176.166 74.0998 175.536 73.9423 174.971 73.6409ZM178.117 72.8899C178.507 72.6652 178.825 72.333 179.034 71.9323C179.253 71.5023 179.368 71.0254 179.368 70.5416C179.368 70.0577 179.253 69.5808 179.034 69.1508C178.825 68.7506 178.507 68.4195 178.117 68.1972C177.709 67.9729 177.251 67.8554 176.786 67.8554C176.321 67.8554 175.863 67.9729 175.455 68.1972C175.066 68.4209 174.748 68.7516 174.538 69.1508C174.318 69.5808 174.204 70.0577 174.204 70.5416C174.204 71.0254 174.318 71.5023 174.538 71.9323C174.75 72.3312 175.067 72.6628 175.455 72.8899C175.863 73.1142 176.321 73.2317 176.786 73.2317C177.251 73.2317 177.709 73.1142 178.117 72.8899Z" fill="#010B40"/>
<path d="M188.576 67.1283V73.9707H187.597L183.541 68.4674V73.9707H182.629V67.1283H183.636L187.663 72.5959V67.1283H188.576Z" fill="#010B40"/>
<path d="M199.99 67.9826H197.599V73.9707H196.659V67.9826H194.268V67.1283H199.99V67.9826Z" fill="#010B40"/>
<path d="M208.21 67.1283V73.9707H207.27V70.7323H203.049V73.9707H202.105V67.1283H203.049V69.8859H207.282V67.1283H208.21Z" fill="#010B40"/>
<path d="M216.265 73.9707H210.885V67.1283H216.171L216.002 67.9667H211.825V69.9535H214.692V70.7998H211.825V73.1203H216.096L216.265 73.9707Z" fill="#010B40"/>
<path d="M225.945 73.9707H225.032V68.2727L222.464 73.8356H221.815L219.274 68.388V73.9747H218.361V67.1323H219.632L222.153 72.58L224.674 67.1323H225.945V73.9707Z" fill="#010B40"/>
<path d="M234 73.9707H228.615V67.1283H233.901L233.732 67.9667H229.559V69.9535H232.426V70.7998H229.559V73.1203H233.831L234 73.9707Z" fill="#010B40"/>
</svg>
