<svg width="143" height="140" viewBox="0 0 143 140" fill="none" xmlns="http://www.w3.org/2000/svg">
<path fill-rule="evenodd" clip-rule="evenodd" d="M72.9101 0.0037947C105.613 0.348734 128.738 26.6043 138.268 55.5511C147.187 82.6469 140.362 112.907 115.532 129.476C90.9422 145.885 57.9477 141.976 33.372 125.549C8.56823 108.97 -5.76052 81.3034 2.79964 54.1223C12.2127 24.2329 39.2637 -0.351092 72.9101 0.0037947Z" fill="#030A95"/>
<g clip-path="url(#clip0_642_3985)">
<path d="M71.1597 75.3253C73.9581 75.3253 76.2266 73.0567 76.2266 70.2583C76.2266 67.4599 73.9581 65.1914 71.1597 65.1914C68.3613 65.1914 66.0928 67.4599 66.0928 70.2583C66.0928 73.0567 68.3613 75.3253 71.1597 75.3253Z" fill="white"/>
<path d="M71.1591 80.64C86.1748 80.64 98.3475 75.9922 98.3475 70.259C98.3475 64.5257 86.1748 59.8779 71.1591 59.8779C56.1434 59.8779 43.9707 64.5257 43.9707 70.259C43.9707 75.9922 56.1434 80.64 71.1591 80.64Z" stroke="white" stroke-width="3.00751"/>
<path d="M62.1694 75.4498C69.6773 88.4538 79.7887 96.6718 84.7538 93.8052C89.719 90.9385 87.6577 78.0728 80.1499 65.0688C72.642 52.0648 62.5306 43.8468 57.5654 46.7135C52.6003 49.5801 54.6615 62.4458 62.1694 75.4498Z" stroke="white" stroke-width="3.00751"/>
<path d="M62.1704 65.0691C54.6626 78.0731 52.6013 90.9388 57.5665 93.8055C62.5316 96.6721 72.643 88.4542 80.1509 75.4501C87.6588 62.4461 89.7201 49.5804 84.7549 46.7138C79.7897 43.8471 69.6783 52.0651 62.1704 65.0691Z" stroke="white" stroke-width="3.00751"/>
</g>
<defs>
<clipPath id="clip0_642_3985">
<rect width="56.8485" height="50.579" fill="white" transform="translate(42.7344 44.9697)"/>
</clipPath>
</defs>
</svg>
