<svg width="142" height="140" viewBox="0 0 142 140" fill="none" xmlns="http://www.w3.org/2000/svg">
<path fill-rule="evenodd" clip-rule="evenodd" d="M72.5995 0.0037947C105.303 0.348734 128.428 26.6043 137.957 55.5511C146.877 82.6469 140.051 112.907 115.221 129.476C90.6316 145.885 57.6371 141.976 33.0614 125.549C8.25769 108.97 -6.07106 81.3034 2.4891 54.1223C11.9022 24.2329 38.9531 -0.351092 72.5995 0.0037947Z" fill="#95BF47"/>
<path d="M67.8276 35.6363C66.847 35.6424 65.8764 35.9557 64.9931 36.4707C63.8154 37.1573 62.7411 38.1924 61.7384 39.4923C59.7329 42.0922 58.0141 45.7741 56.8445 50.0785L56.9646 50.1127L49.6486 52.5158C49.4084 52.5948 49.1954 52.7408 49.0342 52.9369C48.8729 53.133 48.7701 53.3712 48.7377 53.6238L44.1309 89.7542C44.0877 90.0946 44.1749 90.4388 44.3748 90.7167C44.5746 90.9945 44.872 91.1849 45.2063 91.2492L78.059 97.553C78.1563 97.571 78.2552 97.5781 78.354 97.5741C78.4704 97.5797 78.5871 97.57 78.7011 97.5451L96.5278 93.5654C96.8564 93.4919 97.1454 93.296 97.337 93.0168C97.5286 92.7377 97.6088 92.396 97.5613 92.0599C97.5613 92.0599 96.0002 81.1365 94.4345 70.1743C93.6517 64.6931 92.8662 59.2011 92.276 55.061C91.9809 52.9909 91.7348 51.258 91.5608 50.0337C91.4739 49.4215 91.4047 48.9383 91.3572 48.6019C91.3335 48.4337 91.315 48.3001 91.3024 48.2097C91.2899 48.1193 91.2728 47.97 91.2868 48.1018C91.2721 47.9656 91.2369 47.8325 91.1824 47.707C90.8785 47.0039 90.2329 46.5896 89.8173 46.4462C89.6779 46.3977 89.5315 46.3728 89.384 46.3725C89.5484 46.3725 89.3526 46.3712 89.217 46.362C89.0814 46.3528 88.8943 46.3388 88.6741 46.3225C88.2338 46.29 87.6623 46.245 87.0976 46.2014C86.219 46.1336 85.6995 46.094 85.3593 46.0672C85.1204 45.8205 84.7626 45.4484 84.1274 44.7985C83.7186 44.3803 83.2983 43.9507 82.9529 43.6036C82.6446 43.2938 82.4678 43.1165 82.256 42.9298C81.968 42.6383 81.6362 42.4333 81.2198 42.3586C81.219 42.3585 81.218 42.3588 81.2172 42.3586C81.1291 42.3363 81.0391 42.3231 80.9484 42.3191C80.8344 42.315 80.7203 42.3256 80.609 42.3507C80.5659 42.36 80.5232 42.3714 80.4812 42.3849C80.4742 42.3866 80.4672 42.3884 80.4603 42.3902L78.0616 43.1798C77.7006 41.7912 77.2061 40.5621 76.5165 39.5607C75.7254 38.412 74.6335 37.5289 73.3061 37.2419C72.6723 37.1051 72.0387 37.1497 71.4295 37.305C70.7083 36.5274 69.8363 35.9584 68.809 35.7363C68.4829 35.666 68.1545 35.6343 67.8276 35.6363ZM67.8276 38.3263C67.9731 38.3261 68.1119 38.3419 68.2478 38.371C68.4795 38.4211 68.7098 38.5345 68.9369 38.6816C68.3627 39.1725 67.8178 39.7471 67.2952 40.4056C65.7112 42.4016 64.3062 45.1076 63.1243 48.0886L59.9453 49.1335C61.0061 45.8452 62.3886 43.0389 63.8473 41.1479C64.6985 40.0443 65.5674 39.2484 66.3321 38.8027C66.9048 38.4688 67.3913 38.3269 67.8276 38.3263ZM73.0451 39.9766C73.4795 40.148 73.9005 40.4867 74.3214 41.0979C74.7904 41.7788 75.2083 42.7843 75.5168 44.0142L74.1439 44.4669C73.9383 42.7879 73.5785 41.2785 73.0451 39.9766ZM70.5212 40.8715C71.0083 42.0183 71.3755 43.5339 71.5548 45.3171L66.5121 46.9753C67.4131 45.0395 68.3979 43.3284 69.3806 42.0901C69.7696 41.6 70.1524 41.2047 70.5212 40.8715ZM79.4502 45.5592L77.1481 94.634L46.942 88.8382L51.2799 54.8135L79.4502 45.5592ZM82.0785 46.541C82.1301 46.5937 82.1732 46.6383 82.2247 46.691C83.0361 47.5212 83.8011 48.3123 83.8011 48.3123C84.0277 48.5466 84.3311 48.6898 84.6546 48.7151C84.6546 48.7151 85.7617 48.8014 86.8941 48.8888C87.4603 48.9325 88.0325 48.9769 88.4784 49.0098C88.5731 49.0168 88.6337 49.0197 88.7159 49.0256C88.7634 49.3621 88.8299 49.8218 88.9142 50.4154C89.0883 51.6406 89.3368 53.375 89.632 55.4452C90.2223 59.5858 91.005 65.0773 91.7879 70.5586C93.2651 80.9013 94.5754 90.0748 94.7373 91.2071L79.8286 94.5314L82.0785 46.541ZM67.8563 55.8058C63.7189 55.808 60.4532 57.2635 58.2879 59.5355C56.121 61.8091 55.0618 64.8367 55.0618 67.8765C55.0618 71.5669 57.0118 73.757 58.6533 75.1752C59.474 75.8843 60.2108 76.4615 60.6656 76.9834C61.1204 77.5053 61.3103 77.8757 61.3103 78.5021C61.3103 78.6688 61.225 78.9609 61.0858 79.1286C60.9467 79.2962 60.813 79.4155 60.3524 79.4155C59.5909 79.4155 58.3827 78.9061 57.4448 78.3179C56.5069 77.7296 55.8553 77.1492 55.8553 77.1492C55.687 76.9992 55.4839 76.8944 55.2648 76.8445C55.0458 76.7946 54.8177 76.8011 54.6018 76.8635C54.3859 76.926 54.1891 77.0423 54.0295 77.2017C53.87 77.3611 53.7529 77.5585 53.689 77.7757L52.1934 82.8477C52.1325 83.0547 52.1218 83.2735 52.1622 83.4855C52.2026 83.6976 52.293 83.8968 52.4257 84.0663C52.4257 84.0663 55.702 88.1445 61.848 88.146C64.5019 88.146 66.9096 87.0798 68.5924 85.2034C70.2752 83.327 71.2259 80.6836 71.2259 77.6125C71.2259 73.5775 68.9306 71.0407 66.9089 69.3952C65.898 68.5724 64.9422 67.9138 64.3328 67.3659C63.7233 66.8179 63.5837 66.5168 63.5837 66.3367C63.5837 66.2004 63.6184 65.8286 63.8238 65.555C64.0292 65.2814 64.4151 64.9075 65.8388 64.9075C67.7228 64.9075 69.4171 65.805 69.4171 65.805C69.5896 65.8997 69.7807 65.9549 69.9767 65.9667C70.1728 65.9785 70.369 65.9466 70.5514 65.8732C70.7338 65.7998 70.8979 65.6868 71.0321 65.5422C71.1663 65.3976 71.2672 65.2249 71.3277 65.0365L73.4549 58.4221C73.5478 58.133 73.5411 57.8208 73.436 57.536C73.3308 57.2513 73.1333 57.0107 72.8755 56.8534C72.8755 56.8534 72.3227 56.5295 71.4791 56.2743C70.6379 56.0199 69.4195 55.7881 67.8563 55.8058ZM67.8798 58.4958C69.0781 58.4811 69.9093 58.6604 70.5134 58.8301L69.2318 62.8176C68.3574 62.5154 67.1705 62.2123 65.8388 62.2123C63.84 62.2123 62.4277 62.9511 61.694 63.9284C60.9603 64.9057 60.911 65.9245 60.911 66.3367C60.911 67.6647 61.7291 68.6389 62.5527 69.3794C63.3763 70.1199 64.3308 70.7606 65.2306 71.4929C67.0302 72.9577 68.5532 74.5536 68.5532 77.6125C68.5532 80.1286 67.7947 82.0757 66.6113 83.3951C65.428 84.7146 63.8138 85.4508 61.848 85.4508C57.4961 85.4497 55.5339 83.4097 54.9966 82.8003L55.7144 80.3683C55.8813 80.4826 55.846 80.488 56.0328 80.6051C57.1716 81.3194 58.655 82.1107 60.3524 82.1107C61.5195 82.1107 62.5342 81.5813 63.1347 80.8578C63.7353 80.1343 63.983 79.2963 63.983 78.5021C63.983 77.1577 63.3894 76.0265 62.6728 75.2041C61.9562 74.3818 61.1327 73.7704 60.3916 73.1301C58.9093 71.8494 57.7345 70.6977 57.7345 67.8765C57.7345 65.4665 58.5703 63.1317 60.2167 61.4042C61.8631 59.6768 64.3299 58.4984 67.8642 58.4984C67.8694 58.4976 67.8746 58.4967 67.8798 58.4958Z" fill="white"/>
</svg>
