<svg width="24" height="24" viewBox="0 0 24 24" fill="none" xmlns="http://www.w3.org/2000/svg">
<g clip-path="url(#clip0_1879_13489)">
<path d="M12 24C18.6274 24 24 18.6274 24 12C24 5.37258 18.6274 0 12 0C5.37258 0 0 5.37258 0 12C0 18.6274 5.37258 24 12 24Z" fill="#D80027"/>
<path d="M15.165 9.80505L16.1496 11.1619L17.7441 10.6448L16.758 12.0004L17.7424 13.3572L16.1484 12.8382L15.1623 14.1938L15.1634 12.5175L13.5693 11.9985L15.1639 11.4815L15.165 9.80505Z" fill="#F0F0F0"/>
<path d="M12.4782 15.3906C10.6053 15.3906 9.08692 13.8722 9.08692 11.9993C9.08692 10.1263 10.6053 8.60794 12.4782 8.60794C13.0622 8.60794 13.6117 8.75565 14.0914 9.01557C13.3388 8.27954 12.3096 7.82532 11.1739 7.82532C8.86867 7.82532 7 9.69404 7 11.9992C7 14.3044 8.86872 16.1731 11.1739 16.1731C12.3097 16.1731 13.3389 15.7188 14.0914 14.9828C13.6117 15.2429 13.0622 15.3906 12.4782 15.3906Z" fill="#F0F0F0"/>
</g>
<defs>
<clipPath id="clip0_1879_13489">
<rect width="24" height="24" fill="white"/>
</clipPath>
</defs>
</svg>
