<svg width="142" height="140" viewBox="0 0 142 140" fill="none" xmlns="http://www.w3.org/2000/svg">
<path fill-rule="evenodd" clip-rule="evenodd" d="M72.5995 0.0037947C105.303 0.348734 128.428 26.6043 137.957 55.5511C146.877 82.6469 140.051 112.907 115.221 129.476C90.6316 145.885 57.6371 141.976 33.0614 125.549C8.25769 108.97 -6.07106 81.3034 2.4891 54.1223C11.9022 24.2329 38.9531 -0.351092 72.5995 0.0037947Z" fill="#4353FF"/>
<path d="M88.5893 65.0073C88.5893 65.0073 83.6247 80.5947 83.2579 81.9181C83.1112 80.6192 79.4917 52.606 79.4917 52.606C71.0299 52.606 66.53 58.6351 64.1334 65.0073C64.1334 65.0073 58.0928 80.6437 57.6036 81.9426C57.5792 80.7172 56.6743 65.1543 56.6743 65.1543C56.1607 57.3361 49.0441 52.606 43.2725 52.606L50.2179 95.0302C59.071 95.0057 63.8399 89.0011 66.3344 82.6044C66.3344 82.6044 71.6413 68.8061 71.8614 68.1934C71.9104 68.7816 75.6766 95.0302 75.6766 95.0302C84.5541 95.0302 89.3474 89.4178 91.9153 83.2661L104.363 52.606C95.5837 52.606 90.9615 58.6105 88.5893 65.0073Z" fill="white"/>
</svg>
